<?xml version="1.0" standalone="no"?>
<!DOCTYPE svg PUBLIC "-//W3C//DTD SVG 20010904//EN"
 "http://www.w3.org/TR/2001/REC-SVG-20010904/DTD/svg10.dtd">
<svg version="1.0" xmlns="http://www.w3.org/2000/svg"
 width="288.000000pt" height="229.000000pt" viewBox="0 0 288.000000 229.000000"
 preserveAspectRatio="xMidYMid meet">

<g transform="translate(0.000000,229.000000) scale(0.100000,-0.100000)"
fill="#ce20e6" stroke="none">
<path d="M170 1140 l0 -1060 330 0 330 0 0 527 c0 296 4 523 9 518 4 -6 80
-243 167 -528 l158 -517 284 2 284 3 162 523 161 523 3 -525 2 -526 330 0 330
0 0 1060 0 1060 -404 0 -404 0 -15 -37 c-8 -21 -110 -307 -228 -637 l-213
-598 -16 38 c-9 22 -115 308 -235 637 l-219 597 -408 0 -408 0 0 -1060z"/>
</g>
</svg>
